SplineFontDB: 3.0
FontName: Topmarks-Bold
FullName: Topmarks Bold
FamilyName: Topmarks
Weight: Medium
Copyright: Copyright (c) 2012-13 by vernon adams. All rights reserved.
ItalicAngle: 0
UnderlinePosition: 0
UnderlineWidth: 0
Ascent: 1638
Descent: 410
UFOAscent: 1638
UFODescent: -410
LayerCount: 2
Layer: 0 0 "Back"  1
Layer: 1 0 "Fore"  0
FSType: 1
OS2Version: 0
OS2_WeightWidthSlopeOnly: 0
OS2_UseTypoMetrics: 0
CreationTime: 1363716341
ModificationTime: 1363716395
PfmFamily: 0
TTFWeight: 700
TTFWidth: 5
LineGap: 0
VLineGap: 0
OS2TypoAscent: 1638
OS2TypoAOffset: 0
OS2TypoDescent: -410
OS2TypoDOffset: 0
OS2TypoLinegap: 0
OS2WinAscent: 1638
OS2WinAOffset: 0
OS2WinDescent: 410
OS2WinDOffset: 0
HheadAscent: 2471
HheadAOffset: 0
HheadDescent: -1101
HheadDOffset: 0
OS2Vendor: 'newt'
Lookup: 258 0 0 "'kern' Horizontal Kerning in Latin lookup 0"  {"'kern' Horizontal Kerning in Latin lookup 0 subtable"  } ['kern' ('latn' <'dflt' > ) ]
Lookup: 258 0 0 "kernHorizontalKerninginLatinloo"  {"kernHorizontalKerninginLatinloo subtable"  } ['kern' ('latn' <'dflt' > ) ]
Lookup: 258 0 0 "pos_pair_kernlatn_0"  {"pos_pair_kernlatn_0 subtable"  } ['kern' ('latn' <'dflt' > ) ]
DEI: 91125
LangName: 1033 "" "" "" "" "" "" "" "" "vernon adams" "vernon adams" "Copyright (c) 2011 by vernon adams. All rights reserved." 
Encoding: ISO8859-1
Compacted: 1
UnicodeInterp: none
NameList: AGL For New Fonts
DisplaySize: -48
AntiAlias: 1
FitToEm: 1
WinInfo: 0 19 10
BeginPrivate: 4
BlueValues 26 [-80 0 979 1086 1432 1467]
OtherBlues 11 [-820 -750]
StemSnapH 20 [41 256 281 291 303]
StemSnapV 9 [338 352]
EndPrivate
BeginChars: 399 107

StartChar: A
Encoding: 65 65 0
Width: 1398
VWidth: 0
GlyphClass: 2
Flags: HW
LayerCount: 2
UndoRedoHistory
Layer: 1
Undoes
EndUndoes
Redoes
EndRedoes
EndUndoRedoHistory
Fore
SplineSet
500 533 m 1
 894 533 l 1
 823 750 l 1
 698.235 1121 l 1
 573 750 l 1
 500 533 l 1
46 0 m 1
 584 1448 l 1
 824 1448 l 1
 1353 0 l 1
 1068 0 l 1
 959 335 l 1
 433 335 l 1
 320 0 l 1
 46 0 l 1
EndSplineSet
EndChar

StartChar: B
Encoding: 66 66 1
Width: 1389
VWidth: 0
GlyphClass: 2
Flags: HW
LayerCount: 2
UndoRedoHistory
Layer: 1
Undoes
EndUndoes
Redoes
EndRedoes
EndUndoRedoHistory
Fore
SplineSet
444 841 m 1
 664 841 l 2
 879 841 969 907 969 1062 c 0
 969 1195 875 1248 651 1248 c 2
 444 1248 l 1
 444 841 l 1
444 201 m 1
 708 201 l 2
 931 201 1026 268 1026 433 c 0
 1026 590 926 657 693 657 c 2
 444 657 l 1
 444 201 l 1
194 0 m 1
 194 1448 l 1
 641 1448 l 2
 1023 1448 1211 1345 1211 1100 c 0
 1211 920 1140 823 974 775 c 1
 1183 740 1272 633 1272 420 c 0
 1272 127 1086 0 705 0 c 2
 194 0 l 1
EndSplineSet
EndChar

StartChar: C
Encoding: 67 67 2
Width: 1397
VWidth: 0
GlyphClass: 2
Flags: HW
HStem: -22 218 1252 218<708.423 919.673>
VStem: 140 256
LayerCount: 2
UndoRedoHistory
Layer: 1
Undoes
EndUndoes
Redoes
EndRedoes
EndUndoRedoHistory
Fore
SplineSet
843.388 -22 m 0
 425.403 -22 136 274 136 720 c 0
 136 1172 437 1470 856 1470 c 0
 1005 1470 1171.55 1409 1294.55 1314 c 1
 1207.55 1122 l 1
 1132.55 1183 986.027 1252 853.319 1252 c 0
 563.527 1252 392 1032 392 719 c 0
 392 405 562 180 867 180 c 0
 988 180 1134 232 1233 311 c 1
 1310.55 125 l 1
 1201.55 36 1001.37 -22 843.388 -22 c 0
EndSplineSet
EndChar

StartChar: D
Encoding: 68 68 3
Width: 1574
VWidth: 0
GlyphClass: 2
Flags: HW
HStem: 0 200<444 590> 1248 200<444 533 533 566 444 444>
VStem: 194 250<200 200 200 1248> 1201 256
LayerCount: 2
UndoRedoHistory
Layer: 1
Undoes
EndUndoes
Redoes
EndRedoes
EndUndoRedoHistory
Fore
SplineSet
194 0 m 1
 194 1448 l 1
 533 1448 l 2
 1127 1448 1438 1236 1438 738 c 0
 1438 221 1156 0 590 0 c 2
 194 0 l 1
444 200 m 1
 606 200 l 2
 1024 200 1182 368 1182 735 c 0
 1182 1088 1012 1248 566 1248 c 2
 444 1248 l 1
 444 200 l 1
EndSplineSet
EndChar

StartChar: E
Encoding: 69 69 4
Width: 1216
VWidth: 0
GlyphClass: 2
Flags: HW
HStem: 0 200<443.746 1097.78 443.746 1097.78> 642 193<443.746 1009.78 443.746 1009.78> 1248 200<443.746 1047.78 443.746 443.746>
VStem: 194 250
LayerCount: 2
UndoRedoHistory
Layer: 1
Undoes
EndUndoes
Redoes
EndRedoes
EndUndoRedoHistory
Fore
SplineSet
194 0 m 1
 194 1448 l 1
 1047.78 1448 l 1
 1047.78 1248 l 1
 443.746 1248 l 1
 443.746 835 l 1
 1009.78 835 l 1
 1009.78 642 l 1
 443.746 642 l 1
 443.746 200 l 1
 1097.78 200 l 1
 1097.78 0 l 1
 194 0 l 1
EndSplineSet
EndChar

StartChar: F
Encoding: 70 70 5
Width: 1159
VWidth: 0
GlyphClass: 2
Flags: HW
LayerCount: 2
UndoRedoHistory
Layer: 1
Undoes
EndUndoes
Redoes
EndRedoes
EndUndoRedoHistory
Fore
SplineSet
194 0 m 1
 194 1448 l 1
 1035.48 1448 l 1
 1035.48 1248 l 1
 443.746 1248 l 1
 443.746 857 l 1
 1002.48 857 l 1
 1002.48 664 l 1
 443.746 664 l 1
 443.746 0 l 1
 194 0 l 1
EndSplineSet
EndChar

StartChar: G
Encoding: 71 71 6
Width: 1520
VWidth: 0
GlyphClass: 2
Flags: HW
HStem: -22 218 595 178<828.041 1116 828.041 1360.17> 1252 218<735.055 940.437>
VStem: 140 256 1120 244
LayerCount: 2
UndoRedoHistory
Layer: 1
Undoes
EndUndoes
Redoes
EndRedoes
EndUndoRedoHistory
Fore
SplineSet
856.027 -22 m 0
 428.111 -22 136 256 136 687 c 0
 136 1159 441.653 1470 877.693 1470 c 0
 1027.55 1470 1203.17 1416 1336.17 1334 c 1
 1254.17 1145 l 1
 1138.17 1206 994.152 1252 886.721 1252 c 0
 583.389 1252 392 1033 392 701 c 0
 392 391 582 180 868 180 c 0
 963 180 1053 198 1116 227 c 1
 1116 595 l 1
 828.041 595 l 1
 828.041 773 l 1
 1360.17 773 l 1
 1360.17 78 l 1
 1228.17 16 1024.85 -22 856.027 -22 c 0
EndSplineSet
EndChar

StartChar: H
Encoding: 72 72 7
Width: 1554
VWidth: 0
GlyphClass: 2
Flags: HW
LayerCount: 2
UndoRedoHistory
Layer: 1
Undoes
EndUndoes
Redoes
EndRedoes
EndUndoRedoHistory
Fore
SplineSet
194 0 m 1
 194 1448 l 1
 444 1448 l 1
 444 850 l 1
 1112.96 850 l 1
 1112.96 1448 l 1
 1362.96 1448 l 1
 1362.96 0 l 1
 1112.96 0 l 1
 1112.96 635 l 1
 444 635 l 1
 444 0 l 1
 194 0 l 1
EndSplineSet
EndChar

StartChar: I
Encoding: 73 73 8
Width: 640
VWidth: 0
GlyphClass: 2
Flags: HW
HStem: 0 21<195 195 195 445> 1428 20<195 445 445 445>
VStem: 195 250<0 1448 0 1448>
LayerCount: 2
UndoRedoHistory
Layer: 1
Undoes
EndUndoes
Redoes
EndRedoes
EndUndoRedoHistory
Fore
SplineSet
195 0 m 1
 195 1448 l 1
 445 1448 l 1
 445 0 l 1
 195 0 l 1
EndSplineSet
EndChar

StartChar: J
Encoding: 74 74 9
Width: 1142
VWidth: 0
GlyphClass: 2
Flags: HW
HStem: -212 234
VStem: 577 243<120 1248 219 1248 219 1248>
LayerCount: 2
UndoRedoHistory
Layer: 1
Undoes
EndUndoes
Redoes
EndRedoes
EndUndoRedoHistory
Fore
SplineSet
-37 -47 m 1
 114 94 l 1
 195 1 290 -44 373 -44 c 0
 487 -44 577 40 577 200 c 2
 577 1248 l 1
 213 1248 l 1
 213 1448 l 1
 1083 1448 l 1
 1083 1248 l 1
 820 1248 l 1
 820 219 l 2
 820 -103 614 -252 391 -252 c 0
 236 -252 73 -181 -37 -47 c 1
EndSplineSet
EndChar

StartChar: K
Encoding: 75 75 10
Width: 1290
VWidth: 0
GlyphClass: 2
Flags: HW
LayerCount: 2
UndoRedoHistory
Layer: 1
Undoes
EndUndoes
Redoes
EndRedoes
EndUndoRedoHistory
Fore
SplineSet
194 0 m 1
 194 1448 l 1
 444 1448 l 1
 444 822 l 1
 941.43 1448 l 1
 1251.07 1448 l 1
 672.402 773 l 1
 1285.07 0 l 1
 954.068 0 l 1
 444 681 l 1
 444 0 l 1
 194 0 l 1
EndSplineSet
EndChar

StartChar: L
Encoding: 76 76 11
Width: 1084
VWidth: 0
GlyphClass: 2
Flags: HW
HStem: 0 200<443.746 1049.93 443.746 1049.93> 1428 20<194 443.746 443.746 443.746>
VStem: 194 250
LayerCount: 2
UndoRedoHistory
Layer: 1
Undoes
EndUndoes
Redoes
EndRedoes
EndUndoRedoHistory
Fore
SplineSet
194 0 m 1
 194 1448 l 1
 443.746 1448 l 1
 443.746 200 l 1
 1049.93 200 l 1
 1049.93 0 l 1
 194 0 l 1
EndSplineSet
EndChar

StartChar: M
Encoding: 77 77 12
Width: 1892
VWidth: 0
GlyphClass: 2
Flags: HW
LayerCount: 2
UndoRedoHistory
Layer: 1
Undoes
EndUndoes
Redoes
EndRedoes
EndUndoRedoHistory
Fore
SplineSet
194 0 m 1
 194 1448 l 1
 487.333 1448 l 1
 869.207 733 l 1
 946.846 569 l 1
 1022.68 735 l 1
 1407.26 1448 l 1
 1698.79 1448 l 1
 1698.79 0 l 1
 1448.79 0 l 1
 1448.79 1077 l 1
 1352.19 863 l 1
 1001.01 229 l 1
 888.166 229 l 1
 539.694 875 l 1
 444 1094 l 1
 444 0 l 1
 194 0 l 1
EndSplineSet
EndChar

StartChar: N
Encoding: 78 78 13
Width: 1619
VWidth: 0
GlyphClass: 2
Flags: HW
HStem: 0 21<194 194 194 414 1161.57 1161.57 1161.57 1427> 1428 20<194 455 455 455 1207 1427 1427 1427>
VStem: 194 230 1197 230
LayerCount: 2
UndoRedoHistory
Layer: 1
Undoes
EndUndoes
Redoes
EndRedoes
EndUndoRedoHistory
Fore
SplineSet
194 0 m 1
 194 1448 l 1
 455 1448 l 1
 1090 520 l 1
 1207 340 l 1
 1207 1448 l 1
 1427 1448 l 1
 1427 0 l 1
 1161.57 0 l 1
 523 943 l 1
 414 1105 l 1
 414 0 l 1
 194 0 l 1
EndSplineSet
EndChar

StartChar: O
Encoding: 79 79 14
Width: 1632
VWidth: 0
GlyphClass: 2
Flags: HW
HStem: -22 218 1252 218<688.951 937.216>
VStem: 140 256 1236 256
LayerCount: 2
UndoRedoHistory
Layer: 1
Undoes
EndUndoes
Redoes
EndRedoes
EndUndoRedoHistory
Fore
SplineSet
813.083 -22 m 0
 416.764 -22 136 276 136 726 c 0
 136 1172 416.764 1470 813.083 1470 c 0
 1213.35 1470 1496 1172 1496 726 c 0
 1496 276 1213.35 -22 813.083 -22 c 0
813 180 m 0
 1061 180 1241 400 1240 724 c 1
 1240 1054 1061.35 1252 813.083 1252 c 0
 564.819 1252 392 1054 392 724 c 0
 392 400 565 180 813 180 c 0
EndSplineSet
EndChar

StartChar: P
Encoding: 80 80 15
Width: 1280
VWidth: 0
GlyphClass: 2
Flags: HW
LayerCount: 2
UndoRedoHistory
Layer: 1
Undoes
EndUndoes
Redoes
EndRedoes
EndUndoRedoHistory
Fore
SplineSet
444 755 m 1
 654 755 l 2
 862 755 959 822 959 1008 c 0
 959 1185 855.412 1248 636.037 1248 c 2
 444 1248 l 1
 444 755 l 1
194 0 m 1
 194 1448 l 1
 614.371 1448 l 2
 1027.01 1448 1215 1323 1215 1010 c 0
 1215 682 1033 552 637 552 c 2
 444 552 l 1
 444 0 l 1
 194 0 l 1
EndSplineSet
EndChar

StartChar: Q
Encoding: 81 81 16
Width: 1624
VWidth: 0
GlyphClass: 2
Flags: HW
LayerCount: 2
UndoRedoHistory
Layer: 1
Undoes
EndUndoes
Redoes
EndRedoes
EndUndoRedoHistory
Fore
SplineSet
1232.87 -425 m 1
 1129.01 -309 1020 -149 951 13 c 1
 1162 86 l 1
 1219 -43 1317.14 -177 1414.14 -268 c 1
 1232.87 -425 l 1
EndSplineSet
Refer: 14 79 N 1 0 0 1 0 0 2
EndChar

StartChar: R
Encoding: 82 82 17
Width: 1341
VWidth: 0
GlyphClass: 2
Flags: HW
HStem: 0 21<194 194 194 444 1010 1010 1010 1277> 638 183<444 660 660 761.5 444 811 444 660> 1248 200<444 652 652 669 444 444>
VStem: 194 250<0 638 821 1248> 933 252
LayerCount: 2
UndoRedoHistory
Layer: 1
Undoes
EndUndoes
Redoes
EndRedoes
EndUndoRedoHistory
Fore
SplineSet
444 821 m 1
 660 821 l 2
 863 821 950 887 950 1054 c 0
 950 1214 865 1248 669 1248 c 2
 444 1248 l 1
 444 821 l 1
194 0 m 1
 194 1448 l 1
 652 1448 l 2
 1026 1448 1202 1335 1202 1069 c 0
 1202 899.453645399 1146.05406619 754.334388659 978.904555206 681.905234736 c 1
 1277 0 l 1
 1010 0 l 1
 758.0625 638 l 1
 444 638 l 1
 444 0 l 1
 194 0 l 1
EndSplineSet
EndChar

StartChar: S
Encoding: 83 83 18
Width: 1245
VWidth: 0
GlyphClass: 2
Flags: HW
HStem: -22 218 1252 218<563.055 712.917>
VStem: 152 263<1034 1132.5 1034 1167.5> 898 236
LayerCount: 2
UndoRedoHistory
Layer: 1
Undoes
EndUndoes
Redoes
EndRedoes
EndUndoRedoHistory
Fore
SplineSet
668.59 -22 m 0
 501.576 -22 299 33 160 121 c 1
 219 315 l 1
 395 217 540 180 660 180 c 0
 821 180 897.671 279 897.671 385 c 0
 897.671 486 874 552 550 657 c 1
 230 753 152 886 152 1059 c 0
 152 1276 289 1470 642.5 1470 c 0
 788.749 1470 950.143 1426 1082.14 1345 c 1
 1012.14 1151 l 1
 886.249 1218 767.083 1252 658.75 1252 c 0
 467.361 1252 415 1181 415 1084 c 0
 415 984 435.764 948 683.124 859 c 1
 1029.14 740 1139.67 642 1133.67 391 c 0
 1128.67 164 983.671 -22 668.59 -22 c 0
EndSplineSet
EndChar

StartChar: T
Encoding: 84 84 19
Width: 1187
VWidth: 0
GlyphClass: 2
Flags: HW
HStem: 0 21<469.515 469.515 469.515 718.434> 1248 200<60 469.515 60 1127.81 718.434 718.434 718.434 1127.81>
VStem: 470 249
LayerCount: 2
UndoRedoHistory
Layer: 1
Undoes
EndUndoes
Redoes
EndRedoes
EndUndoRedoHistory
Fore
SplineSet
469.515 0 m 1
 469.515 1248 l 1
 60 1248 l 1
 60 1448 l 1
 1127.81 1448 l 1
 1127.81 1248 l 1
 718.434 1248 l 1
 718.434 0 l 1
 469.515 0 l 1
EndSplineSet
EndChar

StartChar: U
Encoding: 85 85 20
Width: 1513
VWidth: 0
GlyphClass: 2
Flags: HW
HStem: -22 218 1428 20<172 422 422 422 1092.5 1342.42 1342.42 1342.42>
VStem: 172 250<547 1448> 1093 250
LayerCount: 2
UndoRedoHistory
Layer: 1
Undoes
EndUndoes
Redoes
EndRedoes
EndUndoRedoHistory
Fore
SplineSet
765.958 -22 m 0
 419 -22 172 208 172 547 c 2
 172 1448 l 1
 422 1448 l 1
 422 536 l 2
 422 322 559 180 765 180 c 0
 960 180 1093 319 1093 529 c 2
 1092.5 1448 l 1
 1342.42 1448 l 1
 1342.42 558 l 2
 1342.42 213 1105.42 -22 765.958 -22 c 0
EndSplineSet
EndChar

StartChar: V
Encoding: 86 86 21
Width: 1306
VWidth: 0
GlyphClass: 2
Flags: HW
LayerCount: 2
UndoRedoHistory
Layer: 1
Undoes
EndUndoes
Redoes
EndRedoes
EndUndoRedoHistory
Fore
SplineSet
530.643 0 m 1
 3 1448 l 1
 275.158 1448 l 1
 555.643 630 l 1
 670.643 323 l 1
 777.643 629 l 1
 1023.56 1448 l 1
 1303.84 1448 l 1
 808.643 0 l 1
 530.643 0 l 1
EndSplineSet
EndChar

StartChar: W
Encoding: 87 87 22
Width: 2143
VWidth: 0
GlyphClass: 2
Flags: HW
LayerCount: 2
UndoRedoHistory
Layer: 1
Undoes
EndUndoes
Redoes
EndRedoes
EndUndoRedoHistory
Fore
SplineSet
498 0 m 1
 46 1448 l 1
 301 1448 l 1
 550 614 l 1
 617 385 l 1
 703 614 l 1
 997.958 1448 l 1
 1159.55 1448 l 1
 1453.78 610 l 1
 1534.78 386 l 1
 1606.78 614 l 1
 1849.78 1448 l 1
 2098.78 1448 l 1
 1647.78 0 l 1
 1426.78 0 l 1
 1073.79 1051 l 1
 719 0 l 1
 498 0 l 1
EndSplineSet
EndChar

StartChar: X
Encoding: 88 88 23
Width: 1310
VWidth: 0
GlyphClass: 2
Flags: HW
LayerCount: 2
UndoRedoHistory
Layer: 1
Undoes
EndUndoes
Redoes
EndRedoes
EndUndoRedoHistory
Fore
SplineSet
1029.85 0 m 1
 655.194 561 l 1
 267 0 l 1
 -7 0 l 1
 531.513 748 l 1
 42 1448 l 1
 320.264 1448 l 1
 678.666 905 l 1
 1044.85 1448 l 1
 1317.85 1448 l 1
 802.346 717 l 1
 1300.85 0 l 1
 1029.85 0 l 1
EndSplineSet
EndChar

StartChar: Y
Encoding: 89 89 24
Width: 1215
VWidth: 0
GlyphClass: 2
Flags: HW
HStem: 0 21<490.185 490.185 490.185 740.185> 1428 20<-19 252 252 252 976 1234 1234 1234>
VStem: 486 250
LayerCount: 2
UndoRedoHistory
Layer: 1
Undoes
EndUndoes
Redoes
EndRedoes
EndUndoRedoHistory
Fore
SplineSet
490.185 0 m 1
 490.185 580 l 1
 -19 1448 l 1
 252 1448 l 1
 613 806 l 1
 976 1448 l 1
 1234 1448 l 1
 740.185 582 l 1
 740.185 0 l 1
 490.185 0 l 1
EndSplineSet
EndChar

StartChar: Z
Encoding: 90 90 25
Width: 1231
VWidth: 0
GlyphClass: 2
Flags: HW
HStem: 0 200<394.727 1123.81 394.727 1123.81> 1248 200<131 839.796 131 1131.81>
LayerCount: 2
UndoRedoHistory
Layer: 1
Undoes
EndUndoes
Redoes
EndRedoes
EndUndoRedoHistory
Fore
SplineSet
100 0 m 1
 100 198 l 1
 839.796 1248 l 1
 131 1248 l 1
 131 1448 l 1
 1131.81 1448 l 1
 1131.81 1268 l 1
 394.727 200 l 1
 1123.81 200 l 1
 1123.81 0 l 1
 100 0 l 1
EndSplineSet
EndChar

StartChar: a
Encoding: 97 97 26
Width: 1224
VWidth: 0
GlyphClass: 2
Flags: HW
HStem: -22 196<473.62 571.161> 820 196
VStem: 96 248<358 546.5 358 606> 772 239
LayerCount: 2
UndoRedoHistory
Layer: 1
Undoes
EndUndoes
Redoes
EndRedoes
EndUndoRedoHistory
Fore
SplineSet
526.943 174 m 0
 669.135 174 767 276 767 419 c 2
 767 808 l 1
 767 808 709 826 634 820 c 0
 472 807 344 659 344 434 c 0
 344 282 420.298 174 526.943 174 c 0
510.469 -22 m 0
 273 -22 96 164 96 425 c 0
 96 787 340 1006 671 1016 c 0
 827 1021 966 963 1010 945 c 1
 1010 363 l 2
 1010 253 1084.27 198 1178.27 198 c 1
 1099.27 -8 l 1
 952.27 -8 849 49 808.795 160 c 1
 756.797 55 631.853 -22 510.469 -22 c 0
EndSplineSet
EndChar

StartChar: ampersand
Encoding: 38 38 27
Width: 2784
VWidth: 0
GlyphClass: 2
Flags: HW
LayerCount: 2
UndoRedoHistory
Layer: 1
Undoes
EndUndoes
Redoes
EndRedoes
EndUndoRedoHistory
Fore
SplineSet
764.277 1062 m 1
 854.555 1114 948.443 1179 996.291 1275 c 0
 1010.73 1304 1018.86 1334 1018.86 1367 c 0
 1018.86 1495 924.068 1557 810.319 1557 c 0
 693.861 1557 601.777 1496 601.777 1367 c 0
 601.777 1260 649.625 1191 697.472 1133 c 0
 717.333 1110 739.902 1087 764.277 1062 c 1
798.583 120 m 0
 1000.8 120 1119.97 215 1222.89 326 c 1
 1221.08 326 1211.15 334 1197.61 349 c 0
 1126.29 425 1047.75 518 974.624 599 c 2
 730.874 865 l 1
 615.319 799 497.958 726 440.181 597 c 0
 423.028 557 414 512 414 461 c 0
 414 288 523.236 191 644.208 146 c 0
 691.152 129 742.61 120 798.583 120 c 0
802.194 -47 m 0
 547.611 -47 348 57 250 243 c 0
 217 305 203 377 203 456 c 0
 203 599 265 696 341 773 c 1
 423.028 858 525.944 926 625.25 985 c 1
 552.125 1066 473.583 1144 435.667 1259 c 0
 423.931 1293 418.514 1332 418.514 1373 c 0
 418.514 1606 590.944 1714 802.194 1714 c 0
 971.013 1714 1101.01 1644 1165.11 1527 c 0
 1188.58 1484 1199.42 1436 1199.42 1379 c 0
 1199.42 1271 1151.57 1192 1100.11 1132 c 1
 1039.62 1059 957.471 998 874.416 949 c 1
 1314.07 452 l 1
 1384.48 564 1438.65 710 1463.03 872 c 0
 1471.15 924 1474.76 973 1474.76 1022 c 1
 1670.76 998 l 1
 1660.76 718 1563.76 485 1436.85 318 c 1
 1519.76 229 1596.76 160 1723.76 118 c 1
 1760.76 107 1804.76 96 1853.76 85 c 1
 1697.76 -30 l 1
 1523.76 -4 1432.33 102 1337.54 203 c 1
 1211.15 66 1048.65 -47 802.194 -47 c 0
EndSplineSet
EndChar

StartChar: asciicircum
Encoding: 94 94 28
Width: 1199
VWidth: 0
GlyphClass: 2
Flags: HW
LayerCount: 2
UndoRedoHistory
Layer: 1
Undoes
EndUndoes
Redoes
EndRedoes
EndUndoRedoHistory
Fore
SplineSet
95 570 m 1
 551.324 1448 l 1
 642.504 1448 l 1
 1105.15 570 l 1
 901.147 570 l 1
 594.657 1176 l 1
 301 570 l 1
 95 570 l 1
EndSplineSet
EndChar

StartChar: asciitilde
Encoding: 126 126 29
Width: 1644
VWidth: 0
GlyphClass: 2
Flags: HW
LayerCount: 2
UndoRedoHistory
Layer: 1
Undoes
EndUndoes
Redoes
EndRedoes
EndUndoRedoHistory
Fore
SplineSet
374 678 m 1
 239 742 l 1
 267 875 346 979 451.639 1028 c 1
 487.75 1046 527.472 1054 572.611 1054 c 0
 636.708 1054 697.194 1027 749.555 1005 c 1
 835.319 967 920.179 915 1005.94 880 c 0
 1029.42 871 1049.28 866 1066.43 866 c 0
 1173.2 866 1238.2 979 1260.2 1075 c 1
 1407.2 1029 l 1
 1374.2 890 1302.2 782 1182.2 731 c 0
 1144.97 715 1107.05 708 1064.62 708 c 0
 1009.55 708 954.485 735 910.249 757 c 0
 826.291 797 740.527 850 649.347 882 c 0
 622.263 891 596.986 896 575.319 896 c 0
 457.958 896 396.569 784 374 678 c 1
EndSplineSet
EndChar

StartChar: asterisk
Encoding: 42 42 30
Width: 1840
VWidth: 0
GlyphClass: 2
Flags: HW
LayerCount: 2
UndoRedoHistory
Layer: 1
Undoes
EndUndoes
Redoes
EndRedoes
EndUndoRedoHistory
Fore
SplineSet
882.286 1298 m 1
 712.866 1610 l 1
 550 1307 l 1
 404 1395 l 1
 621.685 1675 l 1
 308 1766 l 1
 333 1925 l 1
 655.088 1780 l 1
 641.546 1898 625.296 2019 611.755 2136 c 1
 762.518 2136 l 1
 762.518 1786 l 1
 1027.28 1928 l 1
 1103.28 1782 l 1
 800.435 1679 l 1
 1030.28 1384 l 1
 882.286 1298 l 1
EndSplineSet
EndChar

StartChar: at
Encoding: 64 64 31
Width: 1876
VWidth: 0
GlyphClass: 2
Flags: HW
LayerCount: 2
UndoRedoHistory
Layer: 1
Undoes
EndUndoes
Redoes
EndRedoes
EndUndoRedoHistory
Fore
SplineSet
880.708 418 m 0
 980.916 418 1107.3 554 1107.3 821 c 0
 1107.3 928 1058.55 976 998.971 976 c 0
 895.152 976 756.125 836 756.125 604 c 0
 756.125 479 813 418 880.708 418 c 0
986.333 -111 m 0
 549.125 -111 144 167 144 674 c 0
 144 1237 587.125 1467 998.971 1467 c 0
 1371.44 1467 1733.14 1243 1733.14 785 c 0
 1733.14 464 1554.14 251 1308.25 251 c 0
 1200.3 251 1090.15 305 1089.25 429 c 1
 1018.83 308 920.43 252 825.638 252 c 0
 669.125 252 518.125 389 518.125 625 c 0
 518.125 903 753.125 1130 952.027 1130 c 0
 1030.57 1130 1105.5 1096 1173.3 1014 c 1
 1212.3 1099 l 1
 1383.18 1099 l 1
 1310.05 745 1261.3 498 1261.3 481 c 0
 1261.3 421 1297.42 384 1343.46 384 c 0
 1423.8 384 1532.14 497 1532.14 790 c 0
 1532.14 1125 1277.55 1295 997.166 1295 c 0
 701.125 1295 380 1093 380 679 c 0
 380 264 691.125 62 1014.32 62 c 0
 1152.3 62 1300.12 98 1422.9 169 c 1
 1504.15 30 l 1
 1346.17 -65 1160.3 -111 986.333 -111 c 0
EndSplineSet
EndChar

StartChar: b
Encoding: 98 98 32
Width: 1218
VWidth: 0
GlyphClass: 2
Flags: HW
LayerCount: 2
UndoRedoHistory
Layer: 1
Undoes
EndUndoes
Redoes
EndRedoes
EndUndoRedoHistory
Fore
SplineSet
567.45 170.861 m 0
 687.036 170.861 874.432 261.469 874.432 541 c 0
 874.432 708.385 785.609 819.867 668.858 819.867 c 0
 536.388 819.867 410 702.092 410 473 c 2
 410 196 l 1
 458.079 180.351 512.565 170.861 567.45 170.861 c 0
575.751 -23.6089 m 0
 445.173 -23.6089 306.725 3.25774 168 55 c 1
 168 1542 l 1
 410 1542 l 1
 410 867 l 1
 485.067 966.988 586.888 1014.01 711.144 1014.01 c 0
 912.764 1014.01 1122.43 861.239 1122.43 545 c 0
 1122.43 154.591 830.979 -23.6089 575.751 -23.6089 c 0
EndSplineSet
EndChar

StartChar: backslash
Encoding: 92 92 33
Width: 1219
VWidth: 0
GlyphClass: 2
Flags: HW
LayerCount: 2
UndoRedoHistory
Layer: 1
Undoes
EndUndoes
Redoes
EndRedoes
EndUndoRedoHistory
Fore
SplineSet
782.244 0 m 1
 203 1448 l 1
 440 1448 l 1
 1017.24 0 l 1
 782.244 0 l 1
EndSplineSet
EndChar

StartChar: bar
Encoding: 124 124 34
Width: 881
VWidth: 0
GlyphClass: 2
Flags: HW
LayerCount: 2
UndoRedoHistory
Layer: 1
Undoes
EndUndoes
Redoes
EndRedoes
EndUndoRedoHistory
Fore
SplineSet
348 -409 m 1
 348 1526 l 1
 533 1526 l 1
 533 -409 l 1
 348 -409 l 1
EndSplineSet
EndChar

StartChar: braceleft
Encoding: 123 123 35
Width: 1104
VWidth: 0
GlyphClass: 2
Flags: HW
LayerCount: 2
UndoRedoHistory
Layer: 1
Undoes
EndUndoes
Redoes
EndRedoes
EndUndoRedoHistory
Fore
SplineSet
715 -456 m 1
 497 -447 336 -367 336 -138 c 2
 337 169 l 2
 337 343 311 459 151 476 c 1
 151 618 l 1
 292 631 341 739 341 894 c 1
 340 943 338 991 338 1041 c 0
 338 1090 337 1141 336 1190 c 1
 336 1440 462 1552 715 1552 c 1
 715 1404 l 1
 584 1400 531 1343 531 1207 c 2
 530 868 l 2
 530 713 463 599 366 547 c 1
 474 496 525 383 525 230 c 0
 525 155 524 50 524 -27 c 0
 524 -154 534 -264 624 -295 c 0
 648 -304 679 -308 715 -308 c 1
 715 -456 l 1
EndSplineSet
EndChar

StartChar: braceright
Encoding: 125 125 36
Width: 963
VWidth: 0
GlyphClass: 2
Flags: HW
LayerCount: 2
UndoRedoHistory
Layer: 1
Undoes
EndUndoes
Redoes
EndRedoes
EndUndoRedoHistory
Fore
SplineSet
180 -326 m 1
 180 -178 l 1
 340 -178 369 -107 369 103 c 2
 369 290 l 2
 369 443 422 556 530 607 c 1
 430 659 365 772 365 928 c 2
 365 1207 l 2
 365 1343 312 1400 180 1404 c 1
 180 1552 l 1
 432 1552 559 1440 559 1190 c 2
 559 954 l 2
 559 799 604 691 745 678 c 1
 743 536 l 1
 624 524 562 455 561 335 c 2
 559 -8 l 2
 558 -237 398 -317 180 -326 c 1
EndSplineSet
EndChar

StartChar: bracketleft
Encoding: 91 91 37
Width: 908
VWidth: 0
GlyphClass: 2
Flags: HW
LayerCount: 2
UndoRedoHistory
Layer: 1
Undoes
EndUndoes
Redoes
EndRedoes
EndUndoRedoHistory
Fore
SplineSet
247 -214 m 1
 247 1488 l 1
 698 1488 l 1
 698 1358 l 1
 506 1358 l 1
 506 -85 l 1
 698 -85 l 1
 698 -214 l 1
 247 -214 l 1
EndSplineSet
EndChar

StartChar: bracketright
Encoding: 93 93 38
Width: 1105
VWidth: 0
GlyphClass: 2
Flags: HW
LayerCount: 2
UndoRedoHistory
Layer: 1
Undoes
EndUndoes
Redoes
EndRedoes
EndUndoRedoHistory
Fore
SplineSet
166 -232 m 1
 166 -103 l 1
 359 -103 l 1
 359 1340 l 1
 167 1340 l 1
 167 1470 l 1
 617 1470 l 1
 617 -232 l 1
 166 -232 l 1
EndSplineSet
EndChar

StartChar: brokenbar
Encoding: 166 166 39
Width: 880
VWidth: 0
GlyphClass: 2
Flags: HW
LayerCount: 2
UndoRedoHistory
Layer: 1
Undoes
EndUndoes
Redoes
EndRedoes
EndUndoRedoHistory
Fore
SplineSet
296 507 m 1
 296 1526 l 1
 481 1526 l 1
 481 507 l 1
 296 507 l 1
296 -865 m 1
 296 173 l 1
 481 173 l 1
 481 -865 l 1
 296 -865 l 1
EndSplineSet
EndChar

StartChar: c
Encoding: 99 99 40
Width: 1025
VWidth: 0
GlyphClass: 2
Flags: HW
HStem: -22 196<519 643> 815 201
VStem: 96 248<404.5 588.5 404.5 657.5>
LayerCount: 2
UndoRedoHistory
Layer: 1
Undoes
EndUndoes
Redoes
EndRedoes
EndUndoRedoHistory
Fore
SplineSet
588 -22 m 0
 278 -22 96 194 96 499 c 0
 96 816 336 1016 603 1016 c 0
 711 1016 824 982 927 906 c 1
 856 726 l 1
 767 790 684 817 612 817 c 0
 450 817 344 677 344 500 c 0
 344 309 434 174 604 174 c 0
 706 174 809 229 879 290 c 1
 957 104 l 1
 845 17 698 -22 588 -22 c 0
EndSplineSet
EndChar

StartChar: cent
Encoding: 162 162 41
Width: 1110
VWidth: 0
GlyphClass: 2
Flags: HW
LayerCount: 2
UndoRedoHistory
Layer: 1
Undoes
EndUndoes
Redoes
EndRedoes
EndUndoRedoHistory
Fore
SplineSet
585 -414 m 1
 585 1366 l 1
 718 1366 l 1
 718 -414 l 1
 585 -414 l 1
EndSplineSet
Refer: 40 99 N 1 0 0 1 0 0 2
EndChar

StartChar: colon
Encoding: 58 58 42
Width: 951
VWidth: 0
GlyphClass: 2
Flags: HW
LayerCount: 2
UndoRedoHistory
Layer: 1
Undoes
EndUndoes
Redoes
EndRedoes
EndUndoRedoHistory
Fore
SplineSet
280 980 m 1
 280 1227 l 1
 535 1227 l 1
 535 980 l 1
 280 980 l 1
280 -20 m 1
 280 227 l 1
 535 227 l 1
 535 -20 l 1
 280 -20 l 1
EndSplineSet
EndChar

StartChar: comma
Encoding: 44 44 43
Width: 522
VWidth: 0
GlyphClass: 2
Flags: HW
LayerCount: 2
UndoRedoHistory
Layer: 1
Undoes
EndUndoes
Redoes
EndRedoes
EndUndoRedoHistory
Fore
SplineSet
58 -331 m 1
 183 213 l 1
 432 213 l 1
 242 -331 l 1
 58 -331 l 1
EndSplineSet
EndChar

StartChar: copyright
Encoding: 169 169 44
Width: 2043
VWidth: 0
GlyphClass: 2
Flags: HW
LayerCount: 2
UndoRedoHistory
Layer: 1
Undoes
EndUndoes
Redoes
EndRedoes
EndUndoRedoHistory
Fore
SplineSet
1035.43 -2 m 0
 1254.8 -2 1428.14 91 1545.5 215 c 0
 1659.25 335 1752.23 515 1752.23 749 c 0
 1752.23 983 1660.15 1164 1545.5 1284 c 0
 1427.23 1408 1250.29 1502 1030.92 1502 c 0
 811.541 1502 628.75 1408 501.541 1286 c 1
 385.986 1166 293 985 293 752 c 0
 293 516 385.986 335 501.541 215 c 1
 629.75 90 815.152 -2 1035.43 -2 c 0
1035.43 -140 m 0
 768.208 -140 552.75 -24 409.458 123 c 0
 310.153 226 226 358 178 516 c 0
 156 591 144 669 144 750 c 0
 144 1033 274 1235 411.264 1377 c 0
 554.75 1524 766.402 1640 1030.01 1640 c 0
 1297.23 1640 1494.94 1522 1635.78 1375 c 0
 1734.18 1272 1819.23 1142 1867.23 983 c 0
 1889.23 908 1901.23 830 1901.23 749 c 0
 1901.23 467 1773.23 265 1635.78 123 c 1
 1495.85 -24 1299.04 -140 1035.43 -140 c 0
1063.42 190 m 0
 822.374 190 657.75 341 579.75 534 c 0
 551.75 602 536.75 676 536.75 754 c 0
 536.75 1024 681.75 1197 862.096 1274 c 0
 926.194 1302 996.61 1316 1075.15 1316 c 0
 1197.03 1316 1300.85 1277 1386.61 1196 c 1
 1354.11 1055 l 1
 1276.47 1129 1181.68 1167 1067.93 1167 c 0
 896.402 1167 788.972 1059 742.027 917 c 0
 725.777 868 716.75 815 716.75 759 c 0
 716.75 563 803.416 435 931.61 377 c 0
 979.457 356 1034.53 344 1097.72 344 c 0
 1205.15 344 1285.5 380 1349.6 438 c 1
 1391.12 296 l 1
 1299.94 225 1190.71 190 1063.42 190 c 0
EndSplineSet
EndChar

StartChar: currency
Encoding: 164 164 45
Width: 1185
VWidth: 0
GlyphClass: 2
Flags: HW
LayerCount: 2
UndoRedoHistory
Layer: 1
Undoes
EndUndoes
Redoes
EndRedoes
EndUndoRedoHistory
Fore
SplineSet
587.777 526 m 0
 767.43 526 902.846 680 907.36 879 c 0
 911.36 1077 775.555 1243 596.805 1247 c 0
 417.152 1252 270 1086 270 888 c 0
 270 688 409.028 526 587.777 526 c 0
1059.36 361 m 1
 865.832 550 l 1
 792.707 479 696.11 436 590.485 436 c 0
 492.083 436 400 475 327.778 540 c 1
 145 343 l 1
 103 387 l 1
 288.056 581 l 1
 213 662 165 772 165 891 c 0
 165 1000 208 1101 275.417 1180 c 1
 85 1365 l 1
 130 1410 l 1
 316.042 1226 l 1
 392.778 1302 494.791 1348 601.319 1345 c 0
 698.819 1342 788.193 1301 857.707 1236 c 1
 1037.36 1429 l 1
 1085.36 1384 l 1
 899.235 1191 l 1
 973.36 1108 1018.36 998 1015.36 879 c 0
 1012.36 769 972.36 670 905.554 593 c 1
 1102.36 403 l 1
 1059.36 361 l 1
EndSplineSet
EndChar

StartChar: d
Encoding: 100 100 46
Width: 1222
VWidth: 0
GlyphClass: 2
Flags: HW
HStem: -22 196<498.375 578.271> 820 196<588.652 663.131 507.402 689.763>
VStem: 96 248<355 586 355 635.5> 806 243
LayerCount: 2
UndoRedoHistory
Layer: 1
Undoes
EndUndoes
Redoes
EndRedoes
EndUndoRedoHistory
Fore
SplineSet
821.218 145 m 1
 752.958 36 641.916 -22 514.625 -22 c 0
 320 -22 96 115 96 440 c 0
 96 831 380.111 1016 634.694 1016 c 0
 691.569 1016 748.444 1007 805.538 990 c 1
 805.538 1542 l 1
 1048.05 1542 l 1
 1048.05 389 l 2
 1048.05 241 1077.05 96 1124.05 29 c 1
 892.053 -14 l 1
 858.458 39 831.018 101 821.218 145 c 1
344 446 m 0
 344 264 445.111 174 551.638 174 c 0
 673.513 174 805.538 289 805.538 518 c 2
 805.538 798 l 1
 762.32 811 714.138 820 665.388 820 c 0
 511.916 820 344 726 344 446 c 0
EndSplineSet
EndChar

StartChar: dieresis
Encoding: 168 168 47
Width: 1286
VWidth: 0
GlyphClass: 2
Flags: HW
HStem: 1187 261<300 561.324 300 561.324 725.629 986.953 300 725.629>
VStem: 300 261 726 261
LayerCount: 2
UndoRedoHistory
Layer: 1
Undoes
EndUndoes
Redoes
EndRedoes
EndUndoRedoHistory
Fore
SplineSet
725.629 1187 m 1
 725.629 1448 l 1
 986.953 1448 l 1
 986.953 1187 l 1
 725.629 1187 l 1
300 1187 m 1
 300 1448 l 1
 561.324 1448 l 1
 561.324 1187 l 1
 300 1187 l 1
EndSplineSet
EndChar

StartChar: dollar
Encoding: 36 36 48
Width: 2030
VWidth: 0
GlyphClass: 2
Flags: HW
LayerCount: 2
UndoRedoHistory
Layer: 1
Undoes
EndUndoes
Redoes
EndRedoes
EndUndoRedoHistory
Fore
SplineSet
683.879 859 m 1
 686.588 1417 l 1
 559.296 1399 464 1300 464 1143 c 0
 464 971 570.13 906 683.879 859 c 1
812.976 52 m 1
 923.115 69 1012.49 125 1054.02 216 c 0
 1067.56 247 1075.69 281 1075.69 319 c 0
 1075.69 494 931.24 556 817.49 610 c 1
 812.976 52 l 1
688.393 -303 m 1
 683.879 -120 l 1
 536.727 -117 422 -72 318 3 c 1
 375 161 l 1
 463 103 565.616 54 682.074 48 c 1
 686.588 660 l 1
 534.019 736 363 806 279 961 c 0
 255 1007 242 1063 242 1128 c 0
 242 1266 309 1372 384 1443 c 0
 462 1516 566.519 1577 686.588 1587 c 1
 682.074 1748 l 1
 812.976 1748 l 1
 816.588 1588 l 1
 965.546 1585 1093.69 1536 1187.69 1456 c 1
 1130.69 1306 l 1
 1050.41 1380 947.49 1420 817.49 1424 c 1
 815.685 803 l 1
 945.684 747 1061.24 694 1158.69 608 c 0
 1235.69 541 1284.69 459 1284.69 322 c 0
 1284.69 106 1140.69 -14 988.119 -73 c 0
 933.948 -95 876.171 -107 815.685 -114 c 1
 819.296 -303 l 1
 688.393 -303 l 1
EndSplineSet
EndChar

StartChar: e
Encoding: 101 101 49
Width: 1077
VWidth: 0
GlyphClass: 2
Flags: HW
HStem: -22 195<545.444 640.236 545.444 650.177> 835 181<522.423 637.527>
VStem: 96 240<473 488 488 579 473 619> 724 228
LayerCount: 2
UndoRedoHistory
Layer: 1
Undoes
EndUndoes
Redoes
EndRedoes
EndUndoRedoHistory
Fore
SplineSet
336 473 m 1
 660.999 557 723.946 608 723.946 722 c 0
 723.946 787 676.347 835 598.708 835 c 0
 446.139 835 336 670 336 488 c 2
 336 473 l 1
586.972 -22 m 0
 330 -22 96 147 96 488 c 0
 96 750 315 1016 598 1016 c 0
 823 1016 951.721 861 951.721 714 c 0
 951.721 530 819.721 405 373.917 309 c 1
 402 226 492.18 173 598.708 173 c 0
 681.763 173 784.721 204 892.721 275 c 1
 980.721 107 l 1
 856.721 20 713.381 -22 586.972 -22 c 0
EndSplineSet
EndChar

StartChar: eight
Encoding: 56 56 50
Width: 1244
VWidth: 0
GlyphClass: 2
Flags: HW
LayerCount: 2
UndoRedoHistory
Layer: 1
Undoes
EndUndoes
Redoes
EndRedoes
EndUndoRedoHistory
Fore
SplineSet
627.18 863 m 1
 740.027 885 828 972 828 1097 c 0
 828 1214 740 1265 627 1265 c 0
 505 1265 424 1206 424 1097 c 0
 424 972 512.528 885 627.18 863 c 1
627 178 m 0
 764 178 852 247 852 373 c 0
 852 513 740.027 611 627.18 635 c 1
 502.597 609 402 502 402 373 c 0
 402 239 497 178 627 178 c 0
622.666 -22 m 0
 343 -22 142 113 142 362 c 0
 142 577 300 694 438 747 c 1
 312 796 175 912 175 1098 c 0
 175 1343 371 1470 622.666 1470 c 0
 912.555 1470 1070.55 1296 1070.55 1098 c 0
 1070.55 922 931 796 806 747 c 1
 945 694 1102 577 1102 362 c 0
 1102 80 889.555 -22 622.666 -22 c 0
EndSplineSet
EndChar

StartChar: equal
Encoding: 61 61 51
Width: 1259
VWidth: 0
GlyphClass: 2
Flags: HW
LayerCount: 2
UndoRedoHistory
Layer: 1
Undoes
EndUndoes
Redoes
EndRedoes
EndUndoRedoHistory
Fore
SplineSet
218 450 m 1
 218 590 l 1
 1042.98 590 l 1
 1042.98 450 l 1
 218 450 l 1
217 853 m 1
 217 996 l 1
 1042.98 996 l 1
 1042.98 853 l 1
 217 853 l 1
EndSplineSet
EndChar

StartChar: exclam
Encoding: 33 33 52
Width: 761
VWidth: 0
GlyphClass: 2
Flags: HW
LayerCount: 2
UndoRedoHistory
Layer: 1
Undoes
EndUndoes
Redoes
EndRedoes
EndUndoRedoHistory
Fore
SplineSet
309 518 m 1
 218 1704 l 1
 532 1704 l 1
 438 518 l 1
 309 518 l 1
380 0 m 0
 275 0 200 75 200 178 c 0
 200 278 277 351 381 351 c 0
 485 351 561 277 561 175 c 0
 561 74 484 0 380 0 c 0
EndSplineSet
EndChar

StartChar: exclamdown
Encoding: 161 161 53
Width: 1297
VWidth: 0
GlyphClass: 2
Flags: HW
LayerCount: 2
UndoRedoHistory
Layer: 1
Undoes
EndUndoes
Redoes
EndRedoes
EndUndoRedoHistory
Fore
SplineSet
458 813 m 1
 458 1054 l 1
 710 1054 l 1
 710 813 l 1
 458 813 l 1
458 -676 m 1
 458 589 l 1
 653 589 l 1
 653 -676 l 1
 458 -676 l 1
EndSplineSet
EndChar

StartChar: f
Encoding: 102 102 54
Width: 757
VWidth: 0
GlyphClass: 2
Flags: HW
LayerCount: 2
UndoRedoHistory
Layer: 1
Undoes
EndUndoes
Redoes
EndRedoes
EndUndoRedoHistory
Fore
SplineSet
89 -410 m 1
 68 -213 l 1
 198 -213 247 -155 247 -19 c 2
 247 844 l 1
 51 844 l 1
 51 996 l 1
 247 996 l 1
 247 1187 l 2
 247 1477 445.074 1542 717.689 1542 c 2
 768.689 1542 l 1
 768.689 1353 l 1
 549.689 1353 489.31 1320 489.31 1152 c 2
 489.31 996 l 1
 698.689 996 l 1
 698.689 844 l 1
 489.31 844 l 1
 489.31 -11 l 2
 489.31 -273 358 -410 89 -410 c 1
EndSplineSet
EndChar

StartChar: five
Encoding: 53 53 55
Width: 1250
VWidth: 0
GlyphClass: 2
Flags: HW
LayerCount: 2
UndoRedoHistory
Layer: 1
Undoes
EndUndoes
Redoes
EndRedoes
EndUndoRedoHistory
Fore
SplineSet
604 -21 m 0
 459 -21 305 32 179 136 c 1
 269 322 l 1
 395 224 503 184 589 184 c 0
 746 184 846 313 846 459 c 0
 846 639 740 731 627 733 c 1
 554 733 489 717 422 644 c 1
 247 644 l 1
 247 1404 l 1
 979 1404 l 1
 979 1205 l 1
 475 1205 l 1
 461 851 l 1
 503 885 571 929 694 929 c 0
 883 929 1088 806 1088 466 c 0
 1088 138 854 -21 604 -21 c 0
EndSplineSet
EndChar

StartChar: four
Encoding: 52 52 56
Width: 1244
VWidth: 0
GlyphClass: 2
Flags: HW
LayerCount: 2
UndoRedoHistory
Layer: 1
Undoes
EndUndoes
Redoes
EndRedoes
EndUndoRedoHistory
Fore
SplineSet
330 520 m 1
 731 520 l 1
 731 1151 l 1
 555 874 l 1
 330 520 l 1
731 0 m 1
 731 322 l 1
 100 322 l 1
 100 513 l 1
 696 1448 l 1
 958 1448 l 1
 958 520 l 1
 1155 520 l 1
 1155 322 l 1
 958 322 l 1
 958 0 l 1
 731 0 l 1
EndSplineSet
EndChar

StartChar: g
Encoding: 103 103 57
Width: 1192
VWidth: 0
GlyphClass: 2
Flags: HW
HStem: -543 195<496.195 599.111 476.333 688.113> -22 196<495.292 569.982> 820 196<564.806 675.396>
VStem: 96 248<358 561.5 358 597> 806 244
LayerCount: 2
UndoRedoHistory
Layer: 1
Undoes
EndUndoes
Redoes
EndRedoes
EndUndoRedoHistory
Fore
SplineSet
550.812 174 m 0
 698.868 174 808 316 808 509 c 2
 808 797 l 1
 772 811 701.576 820 649.215 820 c 0
 480.396 820 344 689 344 434 c 0
 344 282 439.771 174 550.812 174 c 0
551.716 -543 m 0
 440.674 -543 314 -512 176 -450 c 1
 208 -241 l 1
 302 -301 423.521 -348 529.146 -348 c 0
 669.077 -348 807 -266 807 -25 c 2
 807 107 l 1
 739 14 617.829 -22 522.135 -22 c 0
 278 -22 96 163 96 424 c 0
 96 770 315 1016 648.466 1016 c 0
 774.778 1016 953.511 962 1049.51 906 c 1
 1049.51 -7 l 2
 1049.51 -363 824.511 -543 551.716 -543 c 0
EndSplineSet
EndChar

StartChar: grave
Encoding: 96 96 58
Width: 1044
VWidth: 0
GlyphClass: 2
Flags: HW
HStem: 2064 318<-104 226 -104 415>
VStem: -104 519<2064 2382>
LayerCount: 2
UndoRedoHistory
Layer: 1
Undoes
EndUndoes
Redoes
EndRedoes
EndUndoRedoHistory
Fore
SplineSet
226 2064 m 1
 -104 2382 l 1
 169 2382 l 1
 415 2064 l 1
 226 2064 l 1
EndSplineSet
EndChar

StartChar: greater
Encoding: 62 62 59
Width: 1403
VWidth: 0
GlyphClass: 2
Flags: HW
LayerCount: 2
UndoRedoHistory
Layer: 1
Undoes
EndUndoes
Redoes
EndRedoes
EndUndoRedoHistory
Fore
SplineSet
282 102 m 1
 282 255 l 1
 1017.98 597 l 1
 288 966 l 1
 288 1118 l 1
 1237.98 636 l 1
 1237.98 547 l 1
 282 102 l 1
EndSplineSet
EndChar

StartChar: h
Encoding: 104 104 60
Width: 1266
VWidth: 0
GlyphClass: 2
Flags: HW
HStem: -16 193<1154.5 1196 1196 1196> 804 212<646.5 706>
VStem: 172 242<0 538 538 607.5 895 1542 0 538> 826 242
LayerCount: 2
UndoRedoHistory
Layer: 1
Undoes
EndUndoes
Redoes
EndRedoes
EndUndoRedoHistory
Fore
SplineSet
1196 -16 m 1
 1151 -16 l 2
 916 -16 830 88 830 298 c 2
 830 549 l 2
 830 702 770 804 642 804 c 0
 480 804 414 677 414 538 c 2
 414 0 l 1
 172 0 l 1
 172 1542 l 1
 414 1542 l 1
 414 895 l 1
 493.559 979 601 1016 692 1016 c 0
 919 1016 1072 839 1072 572 c 2
 1072 352 l 2
 1072 224 1101 177 1208 177 c 2
 1230 177 l 1
 1196 -16 l 1
EndSplineSet
EndChar

StartChar: hyphen
Encoding: 45 45 61
Width: 1264
VWidth: 0
GlyphClass: 2
Flags: HW
HStem: 657 168<243 1022.03 243 1022.03>
LayerCount: 2
UndoRedoHistory
Layer: 1
Undoes
EndUndoes
Redoes
EndRedoes
EndUndoRedoHistory
Fore
SplineSet
243 657 m 1
 243 825 l 1
 1022.03 825 l 1
 1022.03 657 l 1
 243 657 l 1
EndSplineSet
EndChar

StartChar: i
Encoding: 105 105 62
Width: 725
VWidth: 0
GlyphClass: 2
Flags: HW
HStem: 1176 310<259 356.5>
VStem: 120 336 161 242
LayerCount: 2
UndoRedoHistory
Layer: 1
Undoes
EndUndoes
Redoes
EndRedoes
EndUndoRedoHistory
Fore
SplineSet
307 1176 m 0
 209 1176 140 1239 140 1331 c 0
 140 1423 209 1486 309 1486 c 0
 406 1486 476 1421 476 1330 c 0
 476 1239 406 1176 307 1176 c 0
731 38 m 1
 501 -65 181 -22 181 277 c 2
 181 996 l 1
 423 996 l 1
 423 339 l 2
 423 163 559 173 700 222 c 1
 731 38 l 1
EndSplineSet
EndChar

StartChar: j
Encoding: 106 106 63
Width: 651
VWidth: 0
GlyphClass: 2
Flags: HW
HStem: -498 204<85.5 122 68.5 233> 1169 312<289.5 387>
VStem: 170 337<1279 1369.5 1278 1370> 230 242<-135.5 996 -48 996 -48 996>
LayerCount: 2
UndoRedoHistory
Layer: 1
Undoes
EndUndoes
Redoes
EndRedoes
EndUndoRedoHistory
Fore
SplineSet
337 1169 m 0
 240 1169 170 1234 170 1324 c 0
 170 1416 240 1481 339 1481 c 0
 437 1481 507 1416 507 1323 c 0
 507 1233 437 1169 337 1169 c 0
113 -498 m 0
 58 -498 -1 -490 -68 -475 c 1
 -35 -281 l 1
 29 -290 66 -294 71 -294 c 0
 173 -294 230 -216 230 -55 c 2
 230 996 l 1
 472 996 l 1
 472 -48 l 2
 472 -351 353 -498 113 -498 c 0
EndSplineSet
EndChar

StartChar: k
Encoding: 107 107 64
Width: 1183
VWidth: 0
GlyphClass: 2
Flags: HW
LayerCount: 2
UndoRedoHistory
Layer: 1
Undoes
EndUndoes
Redoes
EndRedoes
EndUndoRedoHistory
Fore
SplineSet
1173 192 m 1
 1136 0 l 1
 1018 -45 901 -45 786 120 c 2
 633 340 l 1
 399 33 l 1
 318 -70 172 -29 172 100 c 2
 172 1542 l 1
 414 1542 l 1
 414 389 l 1
 834 987 l 1
 1056 926 l 1
 768 524 l 1
 938 287 l 1
 1044 152 1060 162 1173 192 c 1
EndSplineSet
EndChar

StartChar: l
Encoding: 108 108 65
Width: 751
VWidth: 0
GlyphClass: 2
Flags: HW
HStem: -11 202<522 554.5>
VStem: 172 242<192 1542 353 1542 353 1542>
LayerCount: 2
UndoRedoHistory
Layer: 1
Undoes
EndUndoes
Redoes
EndRedoes
EndUndoRedoHistory
Fore
SplineSet
738 218 m 1
 763 28 l 1
 676 4 593 -11 516 -11 c 0
 316 -11 172 83 172 301 c 2
 172 1542 l 1
 414 1542 l 1
 414 353 l 2
 414 241 474 191 570 191 c 0
 615 191 691 203 738 218 c 1
EndSplineSet
EndChar

StartChar: less
Encoding: 60 60 66
Width: 2516
VWidth: 0
GlyphClass: 2
Flags: HW
LayerCount: 2
UndoRedoHistory
Layer: 1
Undoes
EndUndoes
Redoes
EndRedoes
EndUndoRedoHistory
Fore
SplineSet
1335.27 84 m 1
 386 542 l 1
 386 629 l 1
 1339.27 1098 l 1
 1339.27 947 l 1
 604 586 l 1
 1335.27 236 l 1
 1335.27 84 l 1
EndSplineSet
EndChar

StartChar: m
Encoding: 109 109 67
Width: 1896
VWidth: 0
GlyphClass: 2
Flags: HW
LayerCount: 2
UndoRedoHistory
Layer: 1
Undoes
EndUndoes
Redoes
EndRedoes
EndUndoRedoHistory
Fore
SplineSet
1826.44 -17 m 1
 1811.44 -17 l 2
 1528.44 -17 1460.44 96 1460.44 318 c 2
 1460.44 549 l 2
 1460.44 702 1398.7 804 1268.4 804 c 0
 1162.46 804 1071 705 1071 557 c 2
 1071 0 l 1
 829 0 l 1
 829 549 l 2
 829 722 747.972 804 639.638 804 c 0
 515.958 804 432 690 432 534 c 2
 432 0 l 1
 190 0 l 1
 190 600 l 2
 190 701 159 817 64 896 c 1
 291 985 l 1
 329 957 378 873 391 824 c 1
 451.861 940 587.277 1016 710.958 1016 c 0
 857.044 1016 955.044 928 1003.05 826 c 1
 1085.08 972 1229.7 1016 1323.67 1016 c 0
 1559.44 1016 1702.44 839 1702.44 572 c 2
 1702.44 357 l 2
 1702.44 237 1725.44 177 1839.44 177 c 2
 1860.44 177 l 1
 1826.44 -17 l 1
EndSplineSet
EndChar

StartChar: n
Encoding: 110 110 68
Width: 1278
VWidth: 0
GlyphClass: 2
Flags: HW
HStem: -17 194<1164 1203 1203 1208 1208 1208> 804 212<662 727>
VStem: 193 242<0 542 542 602 0 542> 825 239
LayerCount: 2
UndoRedoHistory
Layer: 1
Undoes
EndUndoes
Redoes
EndRedoes
EndUndoRedoHistory
Fore
SplineSet
1242 177 m 1
 1208 -17 l 1
 1164 -17 l 2
 928 -17 847 81 847 328 c 2
 847 549 l 2
 847 702 781 804 673 804 c 0
 560 804 435 717 435 542 c 2
 435 0 l 1
 193 0 l 1
 193 602 l 2
 193 723 151 819 64 896 c 1
 290 985 l 1
 338 948 382 869 394 823 c 1
 455 939 593 1016 731 1016 c 0
 960 1016 1084 839 1084 572 c 2
 1084 345 l 2
 1084 236 1116 177 1203 177 c 2
 1242 177 l 1
EndSplineSet
EndChar

StartChar: nine
Encoding: 57 57 69
Width: 1244
VWidth: 0
GlyphClass: 2
Flags: HW
LayerCount: 2
UndoRedoHistory
Layer: 1
Undoes
EndUndoes
Redoes
EndRedoes
EndUndoRedoHistory
Fore
SplineSet
628.074 701 m 0
 753.56 701 883.452 799 883.452 996 c 0
 883.452 1178 751.754 1271 623.56 1271 c 0
 496.269 1271 360 1180 360 998 c 0
 360 802 498.977 701 628.074 701 c 0
569.394 -132 m 1
 382.519 -19 l 1
 681.338 516 l 1
 670.504 510 647.032 506 594.671 506 c 0
 339 506 123 718 123 984 c 0
 123 1313 385.227 1470 615.435 1470 c 0
 846.545 1470 1102.45 1308 1102.45 979 c 0
 1102.45 854 1007.45 636 924.452 498 c 1
 569.394 -132 l 1
EndSplineSet
EndChar

StartChar: numbersign
Encoding: 35 35 70
Width: 2104
VWidth: 0
GlyphClass: 2
Flags: HW
LayerCount: 2
UndoRedoHistory
Layer: 1
Undoes
EndUndoes
Redoes
EndRedoes
EndUndoRedoHistory
Fore
SplineSet
541.157 752 m 1
 821.018 752 l 1
 875.184 1076 l 1
 598.935 1076 l 1
 541.157 752 l 1
271 106 m 1
 365.116 605 l 1
 74 605 l 1
 87 752 l 1
 390.394 752 l 1
 407.546 863 425.602 967 443.657 1076 c 1
 150 1076 l 1
 166 1221 l 1
 466.227 1221 l 1
 550.185 1703 l 1
 705.462 1703 l 1
 623.31 1221 l 1
 899.559 1221 l 1
 980.813 1703 l 1
 1141.41 1703 l 1
 1053.04 1221 l 1
 1332.41 1221 l 1
 1315.41 1076 l 1
 1028.66 1076 l 1
 974.493 752 l 1
 1258.41 752 l 1
 1241.41 605 l 1
 951.017 605 l 1
 863.448 106 l 1
 709.976 106 l 1
 793.934 605 l 1
 517.685 605 l 1
 431.018 106 l 1
 271 106 l 1
EndSplineSet
EndChar

StartChar: o
Encoding: 111 111 71
Width: 1194
VWidth: 0
GlyphClass: 2
Flags: HW
HStem: -22 196<520.041 673.062 520.041 737.991> 820 196<518.688 671.708>
VStem: 96 248<399.5 592.5 399.5 652> 850 248
LayerCount: 2
UndoRedoHistory
Layer: 1
Undoes
EndUndoes
Redoes
EndRedoes
EndUndoRedoHistory
Fore
SplineSet
594.972 -22 m 0
 314 -22 96 185 96 496 c 0
 96 808 313 1016 594.069 1016 c 0
 879.011 1016 1098.01 810 1098.01 497 c 0
 1098.01 186 881.011 -22 594.972 -22 c 0
596.777 174 m 0
 749.346 174 850.056 303 850.056 496 c 0
 850.056 689 748.444 820 594.972 820 c 0
 442.403 820 344 689 344 496 c 0
 344 303 443.305 174 596.777 174 c 0
EndSplineSet
EndChar

StartChar: one
Encoding: 49 49 72
Width: 989
VWidth: 0
GlyphClass: 2
Flags: HW
LayerCount: 2
UndoRedoHistory
Layer: 1
Undoes
EndUndoes
Redoes
EndRedoes
EndUndoRedoHistory
Fore
SplineSet
443 0 m 1
 443 1233 l 1
 377 1182 291 1135 185 1091 c 1
 125 1262 l 1
 241 1314 382 1397 449 1448 c 1
 711 1448 l 1
 711 0 l 1
 443 0 l 1
EndSplineSet
EndChar

StartChar: ordfeminine
Encoding: 170 170 73
Width: 1003
VWidth: 0
GlyphClass: 2
Flags: HW
LayerCount: 2
UndoRedoHistory
Layer: 1
Undoes
EndUndoes
Redoes
EndRedoes
EndUndoRedoHistory
Fore
SplineSet
464.88 757 m 0
 603.004 757 668.004 864 675.227 1008 c 1
 675.227 1037 l 1
 556.06 1011 313 1044 313 881 c 0
 313 790 381 757 464.88 757 c 0
443.213 636 m 0
 316 636 219 690 175 779 c 0
 160 809 153 842 153 879 c 0
 153 1039 298 1112 435.088 1134 c 0
 513.63 1146 596.685 1144 675.227 1156 c 1
 675.227 1166 l 2
 675.227 1295 634.602 1342 518.143 1342 c 0
 413.421 1342 337 1308 285 1231 c 1
 206 1319 l 1
 266 1420 383 1468 524.463 1468 c 0
 701.227 1468 831.227 1378 831.227 1184 c 1
 829.227 807 l 2
 829.227 755 831.227 728 837.227 657 c 1
 683.227 657 l 1
 676.227 743 l 1
 629.185 679 548.838 636 443.213 636 c 0
EndSplineSet
EndChar

StartChar: p
Encoding: 112 112 74
Width: 1268
VWidth: 0
GlyphClass: 2
Flags: HW
LayerCount: 2
UndoRedoHistory
Layer: 1
Undoes
EndUndoes
Redoes
EndRedoes
EndUndoRedoHistory
Fore
SplineSet
424 196 m 1
 477.06 181 518.676 173 572.777 173 c 0
 779.817 173 926.513 302 926.513 552 c 0
 926.513 711 830.796 819 700.746 819 c 0
 569.656 819 424 709 424 470 c 2
 424 196 l 1
182 -496 m 1
 182 610 l 2
 182 780 94 860 57 896 c 1
 279 985 l 1
 325 942 360 897 383 824 c 1
 450.01 936 555.09 1015 740.282 1015 c 0
 914.028 1015 1173.51 909 1173.51 554 c 0
 1173.51 201 929.513 -23 609.191 -23 c 0
 540.525 -23 490.586 -14 424 4 c 1
 424 -496 l 1
 182 -496 l 1
EndSplineSet
EndChar

StartChar: parenleft
Encoding: 40 40 75
Width: 1105
VWidth: 0
GlyphClass: 2
Flags: HW
LayerCount: 2
UndoRedoHistory
Layer: 1
Undoes
EndUndoes
Redoes
EndRedoes
EndUndoRedoHistory
Fore
SplineSet
376 -316 m 1
 174 56 74 365 74 673 c 0
 74 989 180 1305 388 1692 c 1
 651 1692 l 1
 473 1303 382 987 382 670 c 0
 382 363 466 56 639 -316 c 1
 376 -316 l 1
EndSplineSet
EndChar

StartChar: parenright
Encoding: 41 41 76
Width: 1105
VWidth: 0
GlyphClass: 2
Flags: HW
LayerCount: 2
UndoRedoHistory
Layer: 1
Undoes
EndUndoes
Redoes
EndRedoes
EndUndoRedoHistory
Fore
SplineSet
85 -316 m 1
 259 56 343 363 343 670 c 0
 343 987 251 1303 74 1692 c 1
 337 1692 l 1
 544 1305 651 989 651 673 c 0
 651 365 551 56 348 -316 c 1
 85 -316 l 1
EndSplineSet
EndChar

StartChar: percent
Encoding: 37 37 77
Width: 3445
VWidth: 0
GlyphClass: 2
Flags: HW
LayerCount: 2
UndoRedoHistory
Layer: 1
Undoes
EndUndoes
Redoes
EndRedoes
EndUndoRedoHistory
Fore
SplineSet
615 -22 m 1
 1665.24 1670 l 1
 1828.64 1670 l 1
 796 -22 l 1
 615 -22 l 1
1778.99 85 m 0
 1935.17 85 2001.97 232 2001.97 403 c 0
 2001.97 576 1936.07 715 1781.69 715 c 0
 1624.61 715 1556 568 1556 396 c 0
 1556 259 1597.53 158 1679.68 110 c 1
 1706.76 93 1741.07 85 1778.99 85 c 0
714 922 m 0
 885 922 961 1068 961 1239 c 0
 961 1377 914 1479 825 1527 c 0
 794 1543 756 1551 715 1551 c 0
 541 1551 465 1407 465 1235 c 0
 465 1061 540 922 714 922 c 0
1776.28 -47 m 0
 1590.31 -47 1469 66 1415 222 c 0
 1396 275 1387 333 1387 396 c 0
 1387 603 1487 747 1624.61 812 c 1
 1671.56 836 1724.82 847 1782.6 847 c 0
 2025.97 847 2171.97 667 2171.97 402 c 0
 2171.97 196 2069.97 53 1933.36 -12 c 1
 1886.42 -36 1834.06 -47 1776.28 -47 c 0
710 789 m 0
 504 789 376 904 324 1059 c 0
 305 1113 296 1171 296 1233 c 0
 296 1440 396 1584 541 1649 c 0
 593 1672 652 1683 716 1683 c 0
 983 1683 1128 1503 1128 1238 c 0
 1128 1032 1027 891 883 825 c 0
 831 802 774 789 710 789 c 0
EndSplineSet
EndChar

StartChar: period
Encoding: 46 46 78
Width: 648
VWidth: 0
GlyphClass: 2
Flags: HW
LayerCount: 2
UndoRedoHistory
Layer: 1
Undoes
EndUndoes
Redoes
EndRedoes
EndUndoRedoHistory
Fore
SplineSet
319 0 m 0
 223 0 154 68 154 163 c 0
 154 255 223 322 319 322 c 0
 415 322 484 255 484 160 c 0
 484 66 415 0 319 0 c 0
EndSplineSet
EndChar

StartChar: plus
Encoding: 43 43 79
Width: 1664
VWidth: 0
GlyphClass: 2
Flags: HW
LayerCount: 2
UndoRedoHistory
Layer: 1
Undoes
EndUndoes
Redoes
EndRedoes
EndUndoRedoHistory
Fore
SplineSet
748.643 109 m 1
 748.643 605 l 1
 286 605 l 1
 286 769 l 1
 751.352 769 l 1
 751.352 1266 l 1
 914.912 1266 l 1
 914.912 769 l 1
 1379.36 769 l 1
 1379.36 605 l 1
 913.032 605 l 1
 913.032 109 l 1
 748.643 109 l 1
EndSplineSet
EndChar

StartChar: q
Encoding: 113 113 80
Width: 1272
VWidth: 0
GlyphClass: 2
Flags: HW
LayerCount: 2
UndoRedoHistory
Layer: 1
Undoes
EndUndoes
Redoes
EndRedoes
EndUndoRedoHistory
Fore
SplineSet
549 174 m 0
 697 174 806 316 806 509 c 2
 806 797 l 1
 770 811 700 820 647 820 c 0
 478 820 342 689 342 434 c 0
 342 282 438 174 549 174 c 0
1074 -553 m 2
 906 -639 806 -538 806 -400 c 2
 806 107 l 1
 738 14 616 -22 520 -22 c 0
 276 -22 94 163 94 424 c 0
 94 770 313 1016 646 1016 c 0
 773 1016 952 962 1048 906 c 1
 1048 -334 l 1
 1314 -200 l 1
 1407 -383 l 1
 1074 -553 l 2
EndSplineSet
EndChar

StartChar: question
Encoding: 63 63 81
Width: 947
VWidth: 0
GlyphClass: 2
Flags: HW
LayerCount: 2
UndoRedoHistory
Layer: 1
Undoes
EndUndoes
Redoes
EndRedoes
EndUndoRedoHistory
Fore
SplineSet
361 0 m 0
 272 0 209 63 209 150 c 0
 209 235 274 298 363 298 c 0
 451 298 514 235 514 148 c 0
 514 63 450 0 361 0 c 0
309 399 m 1
 309 863 572.653 953.171 572.653 1099 c 0
 572.653 1202 493.148 1242 399.274 1242 c 0
 333 1242 242 1223 168 1195 c 1
 137 1406 l 1
 240 1449 353 1470 452.916 1470 c 0
 666.255 1470 850.255 1367 850.255 1127 c 0
 850.255 771 479.738 752 423 399 c 1
 309 399 l 1
EndSplineSet
EndChar

StartChar: quotedbl
Encoding: 34 34 82
Width: 1268
VWidth: 0
GlyphClass: 2
Flags: HW
LayerCount: 2
UndoRedoHistory
Layer: 1
Undoes
EndUndoes
Redoes
EndRedoes
EndUndoRedoHistory
Fore
SplineSet
582 1742 m 1
 540 2284 l 1
 734 2284 l 1
 734 1742 l 1
 582 1742 l 1
243 1742 m 1
 200 2284 l 1
 396 2284 l 1
 396 1742 l 1
 243 1742 l 1
EndSplineSet
EndChar

StartChar: quotesingle
Encoding: 39 39 83
Width: 976
VWidth: 0
GlyphClass: 2
Flags: HW
LayerCount: 2
UndoRedoHistory
Layer: 1
Undoes
EndUndoes
Redoes
EndRedoes
EndUndoRedoHistory
Fore
SplineSet
352 1742 m 1
 310 2284 l 1
 505 2284 l 1
 505 1742 l 1
 352 1742 l 1
EndSplineSet
EndChar

StartChar: r
Encoding: 114 114 84
Width: 867
VWidth: 0
GlyphClass: 2
Flags: HW
HStem: 0 21<195 195 195 437> 790 225<628.685 699.185> 965 20<292 292>
VStem: 195 242<0 525 0 611 0 685.5>
LayerCount: 2
UndoRedoHistory
Layer: 1
Undoes
EndUndoes
Redoes
EndRedoes
EndUndoRedoHistory
Fore
SplineSet
195 0 m 1
 195 611 l 2
 195 760 115 857 66 896 c 1
 292 985 l 1
 331 947 367 911 396 823 c 1
 455.958 952 574.685 1015 682.685 1015 c 0
 762.685 1015 780.685 1002 815.685 993 c 1
 797.685 774 l 1
 753.685 785 716.685 790 681.685 790 c 0
 490.264 790 437 607 437 525 c 2
 437 0 l 1
 195 0 l 1
EndSplineSet
EndChar

StartChar: s
Encoding: 115 115 85
Width: 918
VWidth: 0
GlyphClass: 2
Flags: HW
HStem: -22 190<413 528.5 413 597> 832 184<450.5 528>
VStem: 120 231<708 770 708 782> 610 221<246.5 304 205.5 313.5>
LayerCount: 2
UndoRedoHistory
Layer: 1
Undoes
EndUndoes
Redoes
EndRedoes
EndUndoRedoHistory
Fore
SplineSet
480 -22 m 0
 328 -22 192 34 131 67 c 1
 183 242 l 1
 218 224 346 168 480 168 c 0
 577 168 610 218 610 275 c 0
 610 352 562 363 405 421 c 1
 188 493 120 574 120 718 c 0
 120 846 210 1016 467 1016 c 0
 648 1016 766 956 793 941 c 1
 737 774 l 1
 650 812 564 832 492 832 c 0
 409 832 351 803 351 737 c 0
 351 679 393 648 521 605 c 1
 745 534 830 469 831 304 c 1
 831 107 714 -22 480 -22 c 0
EndSplineSet
EndChar

StartChar: section
Encoding: 167 167 86
Width: 1887
VWidth: 0
GlyphClass: 2
Flags: HW
LayerCount: 2
UndoRedoHistory
Layer: 1
Undoes
EndUndoes
Redoes
EndRedoes
EndUndoRedoHistory
Fore
SplineSet
775.847 614 m 1
 828.208 651 884.18 694 913.971 756 c 0
 922.999 777 926.61 797 926.61 821 c 0
 926.61 965 760.5 991 674.736 1043 c 1
 610.639 1005 533 948 533 842 c 0
 533 739 609.736 695 677.444 661 c 0
 707.236 646 739.736 630 775.847 614 c 1
660.291 -84 m 0
 551.958 -84 447 -59 358 -23 c 1
 355 151 l 1
 452 108 545.639 77 655.778 77 c 0
 763.208 77 853.485 112 891.402 186 c 0
 903.138 208 907.652 231 907.652 257 c 0
 907.652 350 840.847 385 780.361 417 c 0
 752.375 431 720.777 447 685.569 463 c 2
 596.194 505 l 1
 493 552 391 614 346 723 c 0
 333 755 326 790 326 828 c 0
 326 980 445 1065 546.542 1117 c 1
 448 1177 368 1251 368 1401 c 0
 368 1635 576.333 1725 789.388 1725 c 0
 886.888 1725 954.61 1704 1042.61 1677 c 1
 1045.61 1503 l 1
 974.61 1536 883.277 1564 793.902 1564 c 0
 679.25 1564 566.403 1532 566.403 1406 c 0
 566.403 1311 625.083 1269 686.472 1231 c 0
 824.597 1148 1019.61 1096 1106.61 949 c 0
 1125.61 916 1135.61 878 1135.61 837 c 0
 1135.61 684 1015.61 595 918.485 536 c 1
 1017.61 485 1109.61 415 1109.61 267 c 0
 1109.61 143 1041.61 61 964.61 7 c 1
 886.888 -49 780.361 -84 660.291 -84 c 0
EndSplineSet
EndChar

StartChar: semicolon
Encoding: 59 59 87
Width: 951
VWidth: 0
GlyphClass: 2
Flags: HW
LayerCount: 2
UndoRedoHistory
Layer: 1
Undoes
EndUndoes
Redoes
EndRedoes
EndUndoRedoHistory
Fore
SplineSet
246 837 m 1
 301 1084 l 1
 501 1084 l 1
 501 837 l 1
 246 837 l 1
176 -451 m 1
 301 93 l 1
 521 93 l 1
 330 -451 l 1
 176 -451 l 1
EndSplineSet
EndChar

StartChar: seven
Encoding: 55 55 88
Width: 1274
VWidth: 0
GlyphClass: 2
Flags: HW
LayerCount: 2
UndoRedoHistory
Layer: 1
Undoes
EndUndoes
Redoes
EndRedoes
EndUndoRedoHistory
Fore
SplineSet
330 0 m 1
 756.636 1214 l 1
 163 1214 l 1
 163 1413 l 1
 1047.27 1413 l 1
 1047.27 1232 l 1
 609 0 l 1
 330 0 l 1
EndSplineSet
EndChar

StartChar: six
Encoding: 54 54 89
Width: 1244
VWidth: 0
GlyphClass: 2
Flags: HW
LayerCount: 2
UndoRedoHistory
Layer: 1
Undoes
EndUndoes
Redoes
EndRedoes
EndUndoRedoHistory
Fore
SplineSet
627 180 m 0
 754 180 882 272 882 453 c 0
 882 649 763 736 634 736 c 0
 507 736 370 653 370 455 c 0
 370 273 499 180 627 180 c 0
634 -22 m 0
 388 -22 123 134 123 537 c 0
 123 910 288 1384 849 1551 c 1
 925 1349 l 1
 644 1263 468 1098 400 832 c 1
 478.160516739 905.43306613 578.073855027 940.128230871 678.265105522 939.435079209 c 0
 895.976437553 937.928890086 1115 769.328115463 1115 468 c 0
 1115 140 864 -22 634 -22 c 0
EndSplineSet
EndChar

StartChar: slash
Encoding: 47 47 90
Width: 1117
VWidth: 0
GlyphClass: 2
Flags: HW
LayerCount: 2
UndoRedoHistory
Layer: 1
Undoes
EndUndoes
Redoes
EndRedoes
EndUndoRedoHistory
Fore
SplineSet
166 0 m 1
 767.161 1448 l 1
 953.161 1448 l 1
 348 0 l 1
 166 0 l 1
EndSplineSet
EndChar

StartChar: sterling
Encoding: 163 163 92
Width: 2047
VWidth: 0
GlyphClass: 2
Flags: HW
LayerCount: 2
UndoRedoHistory
Layer: 1
Undoes
EndUndoes
Redoes
EndRedoes
EndUndoRedoHistory
Fore
SplineSet
202 0 m 1
 200 163 l 1
 322 234 415 319 415 517 c 2
 415 810 l 1
 200 810 l 1
 200 977 l 1
 415 977 l 1
 413 988 412 999 412 1010 c 0
 412 1421 512 1700 896.763 1700 c 0
 1049.9 1700 1176.9 1665 1267.9 1594 c 1
 1205.9 1453 l 1
 1123.9 1503 1018.64 1535 900.374 1535 c 0
 680.097 1535 611 1357 611 1112 c 1
 614 977 l 1
 966.277 977 l 1
 966.277 810 l 1
 616 810 l 1
 616 752 l 2
 616 558 614 359 550 228 c 0
 537 200 520 181 501 166 c 1
 1289.9 166 l 1
 1289.9 0 l 1
 202 0 l 1
EndSplineSet
EndChar

StartChar: t
Encoding: 116 116 93
Width: 855
VWidth: 0
GlyphClass: 2
Flags: HW
HStem: -16 202<556.937 587.394>
VStem: 219 233
LayerCount: 2
UndoRedoHistory
Layer: 1
Undoes
EndUndoes
Redoes
EndRedoes
EndUndoRedoHistory
Fore
SplineSet
548.955 -16 m 0
 363.255 -16 219 78 219 296 c 2
 219 820 l 1
 32 820 l 1
 32 996 l 1
 219 996 l 1
 219 1309 l 1
 451.939 1338 l 1
 451.939 996 l 1
 727.834 996 l 1
 727.834 820 l 1
 451.939 820 l 1
 456.872 348 l 1
 456.872 236 511.039 186 602.834 186 c 0
 648.834 186 724.834 198 770.834 213 c 1
 795.834 23 l 1
 708.834 -1 625.834 -16 548.955 -16 c 0
EndSplineSet
EndChar

StartChar: three
Encoding: 51 51 94
Width: 1244
VWidth: 0
GlyphClass: 2
Flags: HW
LayerCount: 2
UndoRedoHistory
Layer: 1
Undoes
EndUndoes
Redoes
EndRedoes
EndUndoRedoHistory
Fore
SplineSet
608 -22 m 0
 447 -22 270 44 171 179 c 1
 288 335 l 1
 385 229 489 180 604 180 c 0
 748 180 848 269 848 400 c 0
 848 609 695 637 521 637 c 2
 450 637 l 1
 450 843 l 1
 507 843 l 2
 626 843 804 859 804 1047 c 0
 804 1194 693 1252 578 1252 c 0
 479 1252 367 1210 292 1119 c 1
 155 1272 l 1
 270 1406 448 1470 603 1470 c 0
 817 1470 1041 1345 1041 1077 c 0
 1041 881 908 785 815 758 c 1
 912 739 1084 648 1084 397 c 0
 1084 122 865 -22 608 -22 c 0
EndSplineSet
EndChar

StartChar: two
Encoding: 50 50 95
Width: 1244
VWidth: 0
GlyphClass: 2
Flags: HW
LayerCount: 2
UndoRedoHistory
Layer: 1
Undoes
EndUndoes
Redoes
EndRedoes
EndUndoRedoHistory
Fore
SplineSet
578 1469 m 0
 809 1469 1051 1311 1051 1002 c 0
 1051 838 963 694 816 529 c 1
 517 200 l 1
 1048 200 l 1
 1048 0 l 1
 196 0 l 1
 196 192 l 1
 629 666 l 1
 746 796 795 921 795 1022 c 0
 795 1159 704 1252 567 1252 c 0
 475 1252 391 1201 301 1098 c 1
 135 1232 l 1
 249 1390 413 1469 578 1469 c 0
EndSplineSet
EndChar

StartChar: u
Encoding: 117 117 96
Width: 1253
VWidth: 0
GlyphClass: 2
Flags: HW
HStem: -22 192<512.111 600.132> -4 195<1146.82 1151.32>
VStem: 163 248<381 564 354 577> 808 239
LayerCount: 2
UndoRedoHistory
Layer: 1
Undoes
EndUndoes
Redoes
EndRedoes
EndUndoRedoHistory
Fore
SplineSet
525.653 -22 m 0
 302 -22 159 129 163 354 c 1
 163 564 l 1
 168 844 126 969 126 969 c 1
 374 996 l 1
 374 996 418.222 884 411 577 c 1
 411 381 l 1
 408 255 457.944 170 566.277 170 c 0
 715.236 170 808.031 268 808.031 450 c 2
 808.031 996 l 1
 1047.32 996 l 1
 1047.32 323 l 2
 1047.32 207 1107.32 191 1186.32 191 c 1
 1151.32 -4 l 1
 989.325 -4 870.751 78 848.211 174 c 1
 790.744 47 674.611 -22 525.653 -22 c 0
EndSplineSet
EndChar

StartChar: underscore
Encoding: 95 95 97
Width: 927
VWidth: 0
GlyphClass: 2
Flags: HW
LayerCount: 2
UndoRedoHistory
Layer: 1
Undoes
EndUndoes
Redoes
EndRedoes
EndUndoRedoHistory
Fore
SplineSet
-10 -481 m 1
 -10 -353 l 1
 938.758 -353 l 1
 938.758 -481 l 1
 -10 -481 l 1
EndSplineSet
EndChar

StartChar: v
Encoding: 118 118 100
Width: 1053
VWidth: 0
GlyphClass: 2
Flags: HW
LayerCount: 2
UndoRedoHistory
Layer: 1
Undoes
EndUndoes
Redoes
EndRedoes
EndUndoRedoHistory
Fore
SplineSet
443.504 0 m 1
 26 996 l 1
 279.199 996 l 1
 481.421 484 l 1
 541.504 325 l 1
 581.629 484 l 1
 779.337 996 l 1
 1028.02 996 l 1
 645.504 0 l 1
 443.504 0 l 1
EndSplineSet
EndChar

StartChar: w
Encoding: 119 119 101
Width: 1622
VWidth: 0
GlyphClass: 2
Flags: HW
LayerCount: 2
UndoRedoHistory
Layer: 1
Undoes
EndUndoes
Redoes
EndRedoes
EndUndoRedoHistory
Fore
SplineSet
412 0 m 1
 16 996 l 1
 270 996 l 1
 455 484 l 1
 511 325 l 1
 566 484 l 1
 723.333 965 l 1
 894.861 965 l 1
 1067.86 484 l 1
 1124.86 325 l 1
 1178.86 484 l 1
 1359.86 996 l 1
 1607.86 996 l 1
 1227.86 0 l 1
 1024.86 0 l 1
 815.416 582 l 1
 615 0 l 1
 412 0 l 1
EndSplineSet
EndChar

StartChar: x
Encoding: 120 120 102
Width: 1088
VWidth: 0
GlyphClass: 2
Flags: HW
LayerCount: 2
UndoRedoHistory
Layer: 1
Undoes
EndUndoes
Redoes
EndRedoes
EndUndoRedoHistory
Fore
SplineSet
18 0 m 1
 412.194 519 l 1
 63 996 l 1
 348.097 996 l 1
 567.472 681 l 1
 775.791 996 l 1
 1054.79 996 l 1
 691.152 504 l 1
 1071.79 0 l 1
 768.791 0 l 1
 531.361 345 l 1
 284 0 l 1
 18 0 l 1
EndSplineSet
EndChar

StartChar: y
Encoding: 121 121 103
Width: 1226
VWidth: 0
GlyphClass: 2
Flags: HW
HStem: -542 207<483.028 582.333 478.062 673.162> -22 192<529.972 599.034>
VStem: 167 242<242.5 577 381 564> 816 242
LayerCount: 2
UndoRedoHistory
Layer: 1
Undoes
EndUndoes
Redoes
EndRedoes
EndUndoRedoHistory
Fore
SplineSet
539.903 -542 m 0
 426.153 -542 297 -513 181 -459 c 1
 227 -259 l 1
 314 -303 435.181 -335 520.944 -335 c 0
 643.722 -335 819.099 -283 819.099 -44 c 1
 822.099 119 l 1
 755.666 19 655.458 -22 542.611 -22 c 0
 314 -22 167 130 167 355 c 2
 167 564 l 2
 167 844 130 969 130 969 c 1
 375 996 l 1
 375 996 414.417 884 409 577 c 1
 409 381 l 1
 406 247 473.097 170 586.847 170 c 0
 744.833 170 816.099 270 816.099 473 c 2
 816.099 996 l 1
 1058.1 996 l 1
 1058.1 -6 l 1
 1057.1 -401 806.421 -542 539.903 -542 c 0
EndSplineSet
EndChar

StartChar: yen
Encoding: 165 165 104
Width: 1246
VWidth: 0
GlyphClass: 2
Flags: HW
LayerCount: 2
UndoRedoHistory
Layer: 1
Undoes
EndUndoes
Redoes
EndRedoes
EndUndoRedoHistory
Fore
SplineSet
1113.92 283 m 1
 109 283 l 1
 109 422 l 1
 518.135 422 l 1
 518.135 608 l 1
 102 608 l 1
 102 750 l 1
 1109.92 750 l 1
 1109.92 608 l 1
 707.075 608 l 1
 707.075 422 l 1
 1113.92 422 l 1
 1113.92 283 l 1
EndSplineSet
Refer: 24 89 N 1 0 0 1 0 0 2
EndChar

StartChar: z
Encoding: 122 122 105
Width: 1000
VWidth: 0
GlyphClass: 2
Flags: HW
HStem: 0 185<423.63 916.064 423.63 916.064> 825 171<134 605.99 134 894.064>
LayerCount: 2
UndoRedoHistory
Layer: 1
Undoes
EndUndoes
Redoes
EndRedoes
EndUndoRedoHistory
Fore
SplineSet
128 0 m 1
 128 155 l 1
 605.99 825 l 1
 134 825 l 1
 134 996 l 1
 894.064 996 l 1
 894.064 843 l 1
 423.63 185 l 1
 916.064 185 l 1
 916.064 0 l 1
 128 0 l 1
EndSplineSet
EndChar

StartChar: zero
Encoding: 48 48 106
Width: 1304
VWidth: 0
GlyphClass: 2
Flags: HW
LayerCount: 2
UndoRedoHistory
Layer: 1
Undoes
EndUndoes
Redoes
EndRedoes
EndUndoRedoHistory
Fore
SplineSet
650.668 6 m 0
 304 6 118 297 118 735 c 0
 118 1179 304 1474 650.668 1474 c 0
 1000.26 1474 1187.26 1179 1187.26 735 c 0
 1187.26 297 1000.26 6 650.668 6 c 0
650.668 224 m 0
 831.876 224 910.264 429 910.264 735 c 0
 910.264 1047 831.876 1255 650.668 1255 c 0
 467.424 1255 387 1047 387 735 c 0
 387 429 467.424 224 650.668 224 c 0
EndSplineSet
EndChar
